<mxfile host="app.diagrams.net" agent="Mozilla/5.0 (Windows NT 10.0; Win64; x64) AppleWebKit/537.36 (KHTML, like Gecko) Chrome/132.0.0.0 YaBrowser/25.2.0.0 Safari/537.36" version="26.0.6">
  <diagram name="Страница — 1" id="GgOkrF8k45jzo1LIl8vd">
    <mxGraphModel dx="600" dy="324" grid="1" gridSize="10" guides="1" tooltips="1" connect="1" arrows="1" fold="1" page="1" pageScale="1" pageWidth="827" pageHeight="1169" math="0" shadow="0">
      <root>
        <mxCell id="0" />
        <mxCell id="1" parent="0" />
        <mxCell id="32c2xMfvdvQO3vQcV7gG-7" value="" style="group" vertex="1" connectable="0" parent="1">
          <mxGeometry x="40" y="30" width="130" height="60" as="geometry" />
        </mxCell>
        <mxCell id="32c2xMfvdvQO3vQcV7gG-4" value="" style="rounded=1;whiteSpace=wrap;html=1;" vertex="1" parent="32c2xMfvdvQO3vQcV7gG-7">
          <mxGeometry width="130" height="60" as="geometry" />
        </mxCell>
        <mxCell id="32c2xMfvdvQO3vQcV7gG-5" value="" style="rounded=0;whiteSpace=wrap;html=1;" vertex="1" parent="32c2xMfvdvQO3vQcV7gG-7">
          <mxGeometry x="21.666666666666668" width="86.66666666666667" height="60" as="geometry" />
        </mxCell>
      </root>
    </mxGraphModel>
  </diagram>
</mxfile>
